# xmcd
#
# Track frame offsets:
#	150
#	15221
#	26007
#	40505
#	51949
#	65808
#	77074
#	89058
#	98213
#	110531
#	125074
#	139769
#	152665
#	164876
#	172653
#
# Disc length: 2563 seconds
#
# Revision: 1
# Processed by: cddbd v1.5.2PL0 Copyright (c) Steve Scherf et al.
# Submitted via: EZCDAudioConverter 8.2.1.1
#
DISCID=c50a010f
DTITLE=Johnny Cash - Lo Mejor De Johnny Cash
DYEAR=2014
DGENRE=Traditional Country
TTITLE0=Johnny Cash Feat Waylon Jennings - The Night Hank Williams Came To Tow
TTITLE0=n
TTITLE1=Johnny Cash - Cry, Cry, Cry
TTITLE2=Johnny Cash - Long Black Veil
TTITLE3=Johnny Cash - I Walk The Line
TTITLE4=Johnny Cash - Tennessee Flat Top Box
TTITLE5=Johnny Cash - Get Rhythm
TTITLE6=Johnny Cash - The Big Light
TTITLE7=Johnny Cash - Blue Train
TTITLE8=Johnny Cash - Folsom Prison Blues
TTITLE9=Johnny Cash - Home Of The Blues
TTITLE10=Johnny Cash - Cat's In The Cradle
TTITLE11=Johnny Cash - Wanted Man
TTITLE12=Johnny Cash - Ring Of Fire
TTITLE13=Johnny Cash - Guess Things Happen That Way
TTITLE14=Johnny Cash - The Ballad Of Barbara
EXTD=
EXTT0=
EXTT1=
EXTT2=
EXTT3=
EXTT4=
EXTT5=
EXTT6=
EXTT7=
EXTT8=
EXTT9=
EXTT10=
EXTT11=
EXTT12=
EXTT13=
EXTT14=
PLAYORDER=
